<svg width="32" height="33" viewBox="0 0 32 33" fill="none" xmlns="http://www.w3.org/2000/svg">
<path d="M3.20301 27.462V24.27H6.39503V13.0979C6.39503 10.8901 7.06003 8.9283 8.39004 7.21259C9.72005 5.49688 11.4491 4.37303 13.5771 3.84102V2.72382C13.5771 2.05881 13.8098 1.49356 14.2753 1.02805C14.7408 0.562552 15.3061 0.329801 15.9711 0.329801C16.6361 0.329801 17.2013 0.562552 17.6668 1.02805C18.1323 1.49356 18.3651 2.05881 18.3651 2.72382V3.84102C20.4931 4.37303 22.2221 5.49688 23.5521 7.21259C24.8821 8.9283 25.5471 10.8901 25.5471 13.0979V24.27H28.7392V27.462H3.20301ZM15.9711 32.25C15.0933 32.25 14.3418 31.9374 13.7167 31.3123C13.0916 30.6872 12.7791 29.9358 12.7791 29.058H19.1631C19.1631 29.9358 18.8506 30.6872 18.2254 31.3123C17.6003 31.9374 16.8489 32.25 15.9711 32.25ZM0.0109863 13.0979C0.0109863 10.4379 0.60284 7.9973 1.78655 5.77618C2.97025 3.55507 4.55961 1.71301 6.55463 0.25L8.42994 2.80362C6.83393 3.97402 5.56377 5.45033 4.61946 7.23254C3.67516 9.01476 3.20301 10.9699 3.20301 13.0979H0.0109863ZM28.7392 13.0979C28.7392 10.9699 28.267 9.01476 27.3227 7.23254C26.3784 5.45033 25.1082 3.97402 23.5122 2.80362L25.3875 0.25C27.3826 1.71301 28.9719 3.55507 30.1556 5.77618C31.3393 7.9973 31.9312 10.4379 31.9312 13.0979H28.7392Z" fill="#2C2E5C"/>
</svg>
