<svg width="32" height="32" viewBox="0 0 32 32" fill="none" xmlns="http://www.w3.org/2000/svg">
<path d="M4.24106 26.4078V23.301H7.37439V12.4272C7.37439 11.5728 7.48536 10.7314 7.70731 9.90291C7.92925 9.07443 8.26217 8.28479 8.70606 7.53398L11.0561 9.86408C10.8733 10.2783 10.7362 10.699 10.6448 11.1262C10.5534 11.5534 10.5077 11.9871 10.5077 12.4272V23.301H20.2211L0.167725 3.41748L2.36106 1.24272L31.1877 29.8252L28.9944 32L23.2761 26.4078H4.24106ZM26.1744 20.4272L23.0411 17.3204V12.4272C23.0411 10.7184 22.4274 9.25566 21.2002 8.03883C19.973 6.82201 18.4977 6.21359 16.7744 6.21359C16.0955 6.21359 15.4427 6.31715 14.8161 6.52427C14.1894 6.73139 13.6149 7.04207 13.0927 7.45631L10.8211 5.20388C11.3433 4.78964 11.9047 4.42718 12.5052 4.1165C13.1058 3.80583 13.7455 3.57282 14.4244 3.41748V2.3301C14.4244 1.68285 14.6529 1.13269 15.1098 0.679612C15.5668 0.226537 16.1216 0 16.7744 0C17.4272 0 17.982 0.226537 18.439 0.679612C18.8959 1.13269 19.1244 1.68285 19.1244 2.3301V3.41748C21.2133 3.93528 22.9105 5.02913 24.2161 6.69903C25.5216 8.36893 26.1744 10.2783 26.1744 12.4272V20.4272ZM16.7744 31.068C15.9127 31.068 15.1751 30.7638 14.5615 30.1553C13.9479 29.5469 13.6411 28.8155 13.6411 27.9612H19.9077C19.9077 28.8155 19.6009 29.5469 18.9873 30.1553C18.3737 30.7638 17.6361 31.068 16.7744 31.068Z" fill="#808080"/>
</svg>
