<svg width="32" height="20" viewBox="0 0 32 20" fill="none" xmlns="http://www.w3.org/2000/svg">
<path d="M13.3665 12.5H6.25C2.79825 12.5 0 9.70175 0 6.25C0 2.79825 2.79825 0 6.25 0H14.5526C15.9334 0 17.0526 1.11925 17.0526 2.5C17.0526 3.88075 15.9334 5 14.5526 5H6.12213C5.43188 5 4.87213 5.55963 4.87213 6.25C4.87213 6.94037 5.43188 7.5 6.12213 7.5H13.2388C16.6905 7.5 19.4888 10.2983 19.4888 13.75C19.4888 17.2017 16.6905 20 13.2388 20H2.5C1.11925 20 0 18.8808 0 17.5C0 16.1192 1.11925 15 2.5 15H13.3665C14.0569 15 14.6165 14.4404 14.6165 13.75C14.6165 13.0596 14.0569 12.5 13.3665 12.5ZM18.6268 20C20.2891 18.8757 21.4772 17.0835 21.821 15H25.8554C26.5341 15 27.0844 14.4404 27.0844 13.75V6.25C27.0844 5.55963 26.5341 5 25.8554 5H18.5264C19.1101 4.3365 19.4651 3.4605 19.4651 2.5C19.4651 1.5395 19.1101 0.6635 18.5264 0H27.0844C29.7991 0 32 2.23863 32 5V15C32 17.7614 29.7991 20 27.0844 20H18.6268Z" fill="#009287"/>
</svg>
