<svg width="32" height="32" viewBox="0 0 32 32" fill="none" xmlns="http://www.w3.org/2000/svg">
<path d="M0.352123 31.695H6.9976C7.34941 31.695 7.66214 31.4996 7.8576 31.226L26.1522 1.16496C26.3867 0.774054 26.1131 0.304962 25.644 0.304962H19.3504C19.0376 0.304962 18.764 0.461326 18.6076 0.734963L0.039395 31.1478C-0.077878 31.3823 0.0784861 31.695 0.352123 31.695Z" fill="#3EA8FF"/>
<path d="M23.2597 31.2259L31.8988 17.3486C32.1724 16.9186 31.8597 16.3714 31.3515 16.3714H25.0969C24.8624 16.3714 24.6278 16.4886 24.5106 16.6841L15.6369 30.8741C15.4024 31.2259 15.676 31.695 16.106 31.695H22.4778C22.7906 31.695 23.1033 31.5387 23.2597 31.2259Z" fill="#3EA8FF"/>
</svg>
