<svg width="40" height="9" viewBox="0 0 40 9" fill="none" xmlns="http://www.w3.org/2000/svg">
<path d="M3.52539 2.10645L1.5918 8H0.0341797L2.67578 0.890625H3.66699L3.52539 2.10645ZM5.13184 8L3.19336 2.10645L3.03711 0.890625H4.03809L6.69434 8H5.13184ZM5.04395 5.35352V6.50098H1.28906V5.35352H5.04395ZM10.2656 2.7168V3.71289H7.18945V2.7168H10.2656ZM7.95117 1.41309H9.35742V6.4082C9.35742 6.5612 9.37695 6.67839 9.41602 6.75977C9.45833 6.84115 9.52018 6.89811 9.60156 6.93066C9.68294 6.95996 9.78548 6.97461 9.90918 6.97461C9.99707 6.97461 10.0752 6.97135 10.1436 6.96484C10.2152 6.95508 10.2754 6.94531 10.3242 6.93555L10.3291 7.9707C10.2087 8.00977 10.0785 8.04069 9.93848 8.06348C9.7985 8.08626 9.64388 8.09766 9.47461 8.09766C9.16536 8.09766 8.89518 8.0472 8.66406 7.94629C8.4362 7.84212 8.26042 7.67611 8.13672 7.44824C8.01302 7.22038 7.95117 6.9209 7.95117 6.5498V1.41309ZM15.7754 5.6416H17.2354C17.2061 6.12012 17.0742 6.54492 16.8398 6.91602C16.6087 7.28711 16.2848 7.57682 15.8682 7.78516C15.4548 7.99349 14.9567 8.09766 14.374 8.09766C13.9183 8.09766 13.5098 8.01953 13.1484 7.86328C12.7871 7.70378 12.4779 7.47591 12.2207 7.17969C11.9668 6.88346 11.7731 6.52539 11.6396 6.10547C11.5062 5.68555 11.4395 5.21517 11.4395 4.69434V4.20117C11.4395 3.68034 11.5078 3.20996 11.6445 2.79004C11.7845 2.36686 11.9831 2.00716 12.2402 1.71094C12.5007 1.41471 12.8115 1.18685 13.1729 1.02734C13.5342 0.867839 13.9378 0.788086 14.3838 0.788086C14.9762 0.788086 15.4759 0.895508 15.8828 1.11035C16.293 1.3252 16.6104 1.62142 16.835 1.99902C17.0628 2.37663 17.1995 2.80632 17.2451 3.28809H15.7803C15.764 3.00163 15.707 2.75911 15.6094 2.56055C15.5117 2.35872 15.3636 2.20736 15.165 2.10645C14.9697 2.00228 14.7093 1.9502 14.3838 1.9502C14.1396 1.9502 13.9264 1.99577 13.7441 2.08691C13.5618 2.17806 13.4089 2.31641 13.2852 2.50195C13.1615 2.6875 13.0687 2.92188 13.0068 3.20508C12.9482 3.48503 12.9189 3.8138 12.9189 4.19141V4.69434C12.9189 5.06217 12.9466 5.38607 13.002 5.66602C13.0573 5.94271 13.1419 6.17708 13.2559 6.36914C13.373 6.55794 13.5228 6.70117 13.7051 6.79883C13.8906 6.89323 14.1136 6.94043 14.374 6.94043C14.68 6.94043 14.9323 6.8916 15.1309 6.79395C15.3294 6.69629 15.4808 6.55143 15.585 6.35938C15.6924 6.16732 15.7559 5.92806 15.7754 5.6416ZM18.3848 5.41211V5.30957C18.3848 4.9222 18.4401 4.56576 18.5508 4.24023C18.6615 3.91146 18.8226 3.62663 19.0342 3.38574C19.2458 3.14486 19.5062 2.95768 19.8154 2.82422C20.1247 2.6875 20.4795 2.61914 20.8799 2.61914C21.2803 2.61914 21.6367 2.6875 21.9492 2.82422C22.2617 2.95768 22.5238 3.14486 22.7354 3.38574C22.9502 3.62663 23.113 3.91146 23.2236 4.24023C23.3343 4.56576 23.3896 4.9222 23.3896 5.30957V5.41211C23.3896 5.79622 23.3343 6.15267 23.2236 6.48145C23.113 6.80697 22.9502 7.0918 22.7354 7.33594C22.5238 7.57682 22.2633 7.764 21.9541 7.89746C21.6449 8.03092 21.29 8.09766 20.8896 8.09766C20.4893 8.09766 20.1328 8.03092 19.8203 7.89746C19.5111 7.764 19.249 7.57682 19.0342 7.33594C18.8226 7.0918 18.6615 6.80697 18.5508 6.48145C18.4401 6.15267 18.3848 5.79622 18.3848 5.41211ZM19.791 5.30957V5.41211C19.791 5.63346 19.8105 5.84017 19.8496 6.03223C19.8887 6.22428 19.9505 6.39355 20.0352 6.54004C20.123 6.68327 20.237 6.79557 20.377 6.87695C20.5169 6.95833 20.6878 6.99902 20.8896 6.99902C21.085 6.99902 21.2526 6.95833 21.3926 6.87695C21.5326 6.79557 21.6449 6.68327 21.7295 6.54004C21.8141 6.39355 21.876 6.22428 21.915 6.03223C21.9574 5.84017 21.9785 5.63346 21.9785 5.41211V5.30957C21.9785 5.09473 21.9574 4.8929 21.915 4.7041C21.876 4.51204 21.8125 4.34277 21.7246 4.19629C21.64 4.04655 21.5277 3.92936 21.3877 3.84473C21.2477 3.76009 21.0785 3.71777 20.8799 3.71777C20.6813 3.71777 20.512 3.76009 20.3721 3.84473C20.2354 3.92936 20.123 4.04655 20.0352 4.19629C19.9505 4.34277 19.8887 4.51204 19.8496 4.7041C19.8105 4.8929 19.791 5.09473 19.791 5.30957ZM27.874 6.84766V0.5H29.29V8H28.0156L27.874 6.84766ZM24.5342 5.42188V5.31934C24.5342 4.91569 24.5798 4.54948 24.6709 4.2207C24.762 3.88867 24.8955 3.60384 25.0713 3.36621C25.2471 3.12858 25.4635 2.94466 25.7207 2.81445C25.9779 2.68424 26.2708 2.61914 26.5996 2.61914C26.9089 2.61914 27.179 2.68424 27.4102 2.81445C27.6445 2.94466 27.8431 3.13021 28.0059 3.37109C28.1719 3.60872 28.3053 3.8903 28.4062 4.21582C28.5072 4.53809 28.5804 4.89128 28.626 5.27539V5.5C28.5804 5.86784 28.5072 6.20964 28.4062 6.52539C28.3053 6.84115 28.1719 7.11784 28.0059 7.35547C27.8431 7.58984 27.6445 7.77214 27.4102 7.90234C27.1758 8.03255 26.9023 8.09766 26.5898 8.09766C26.2611 8.09766 25.9681 8.03092 25.7109 7.89746C25.457 7.764 25.2422 7.57682 25.0664 7.33594C24.8939 7.09505 24.762 6.81185 24.6709 6.48633C24.5798 6.16081 24.5342 5.80599 24.5342 5.42188ZM25.9404 5.31934V5.42188C25.9404 5.63997 25.9567 5.84342 25.9893 6.03223C26.0251 6.22103 26.082 6.38867 26.1602 6.53516C26.2415 6.67839 26.3457 6.79069 26.4727 6.87207C26.6029 6.9502 26.7607 6.98926 26.9463 6.98926C27.1872 6.98926 27.3857 6.93555 27.542 6.82812C27.6982 6.71745 27.8171 6.56608 27.8984 6.37402C27.9831 6.18197 28.0319 5.96061 28.0449 5.70996V5.07031C28.0352 4.86523 28.0059 4.68132 27.957 4.51855C27.9115 4.35254 27.8431 4.21094 27.752 4.09375C27.6641 3.97656 27.5534 3.88542 27.4199 3.82031C27.2897 3.75521 27.1351 3.72266 26.9561 3.72266C26.7738 3.72266 26.6175 3.76497 26.4873 3.84961C26.3571 3.93099 26.2513 4.04329 26.1699 4.18652C26.0918 4.32975 26.0332 4.49902 25.9941 4.69434C25.9583 4.88639 25.9404 5.09473 25.9404 5.31934ZM33.3203 8.09766C32.9102 8.09766 32.5423 8.03255 32.2168 7.90234C31.8913 7.76888 31.6146 7.58496 31.3867 7.35059C31.1621 7.11621 30.9896 6.8444 30.8691 6.53516C30.7487 6.22266 30.6885 5.89062 30.6885 5.53906V5.34375C30.6885 4.94336 30.7454 4.57715 30.8594 4.24512C30.9733 3.91309 31.1361 3.625 31.3477 3.38086C31.5625 3.13672 31.8229 2.94954 32.1289 2.81934C32.4349 2.68587 32.7799 2.61914 33.1641 2.61914C33.5384 2.61914 33.8704 2.68099 34.1602 2.80469C34.4499 2.92839 34.6924 3.10417 34.8877 3.33203C35.0863 3.5599 35.236 3.83333 35.3369 4.15234C35.4378 4.4681 35.4883 4.81966 35.4883 5.20703V5.79297H31.2891V4.85547H34.1064V4.74805C34.1064 4.55273 34.0706 4.37858 33.999 4.22559C33.9307 4.06934 33.8265 3.94564 33.6865 3.85449C33.5465 3.76335 33.3675 3.71777 33.1494 3.71777C32.9639 3.71777 32.8044 3.75846 32.6709 3.83984C32.5374 3.92122 32.4284 4.03516 32.3438 4.18164C32.2624 4.32812 32.2005 4.50065 32.1582 4.69922C32.1191 4.89453 32.0996 5.10938 32.0996 5.34375V5.53906C32.0996 5.75065 32.1289 5.94596 32.1875 6.125C32.2493 6.30404 32.3356 6.45866 32.4463 6.58887C32.5602 6.71908 32.6969 6.81999 32.8564 6.8916C33.0192 6.96322 33.2031 6.99902 33.4082 6.99902C33.6621 6.99902 33.8981 6.9502 34.1162 6.85254C34.3376 6.75163 34.528 6.60026 34.6875 6.39844L35.3711 7.14062C35.2604 7.30013 35.109 7.45312 34.917 7.59961C34.7282 7.74609 34.5003 7.86654 34.2334 7.96094C33.9665 8.05208 33.6621 8.09766 33.3203 8.09766ZM38.1953 3.86914V8H36.7891V2.7168H38.1123L38.1953 3.86914ZM39.7871 2.68262L39.7627 3.98633C39.6943 3.97656 39.6113 3.96842 39.5137 3.96191C39.4193 3.95215 39.333 3.94727 39.2549 3.94727C39.0563 3.94727 38.8838 3.97331 38.7373 4.02539C38.5941 4.07422 38.4736 4.14746 38.376 4.24512C38.2816 4.34277 38.21 4.46159 38.1611 4.60156C38.1156 4.74154 38.0895 4.90104 38.083 5.08008L37.7998 4.99219C37.7998 4.65039 37.834 4.33626 37.9023 4.0498C37.9707 3.76009 38.07 3.50781 38.2002 3.29297C38.3337 3.07812 38.4964 2.91211 38.6885 2.79492C38.8805 2.67773 39.1003 2.61914 39.3477 2.61914C39.4258 2.61914 39.5055 2.62565 39.5869 2.63867C39.6683 2.64844 39.735 2.66309 39.7871 2.68262Z" fill="black"/>
</svg>
