<svg width="28" height="6" viewBox="0 0 28 6" xmlns="http://www.w3.org/2000/svg">
<path d="M3.12499 5.45799C2.43033 5.45799 1.84699 5.21499 1.37499 4.72899C0.902992 4.24299 0.666992 3.66666 0.666992 2.99999C0.666992 2.33333 0.909992 1.75699 1.39599 1.27099C1.88199 0.784992 2.45833 0.541992 3.12499 0.541992C3.79166 0.541992 4.36099 0.784992 4.83299 1.27099C5.30566 1.75699 5.54199 2.33333 5.54199 2.99999C5.54199 3.66666 5.30566 4.24299 4.83299 4.72899C4.36099 5.21499 3.79166 5.45799 3.12499 5.45799ZM14 5.45799C13.3333 5.45799 12.757 5.21499 12.271 4.72899C11.785 4.24299 11.542 3.66666 11.542 2.99999C11.542 2.33333 11.785 1.75699 12.271 1.27099C12.757 0.784992 13.3333 0.541992 14 0.541992C14.6667 0.541992 15.243 0.784992 15.729 1.27099C16.215 1.75699 16.458 2.33333 16.458 2.99999C16.458 3.66666 16.215 4.24299 15.729 4.72899C15.243 5.21499 14.6667 5.45799 14 5.45799ZM24.875 5.45799C24.2083 5.45799 23.639 5.21499 23.167 4.72899C22.6943 4.24299 22.458 3.66666 22.458 2.99999C22.458 2.33333 22.6943 1.75699 23.167 1.27099C23.639 0.784992 24.2083 0.541992 24.875 0.541992C25.5697 0.541992 26.153 0.784992 26.625 1.27099C27.097 1.75699 27.333 2.33333 27.333 2.99999C27.333 3.66666 27.09 4.24299 26.604 4.72899C26.118 5.21499 25.5417 5.45799 24.875 5.45799Z"/>
</svg>
