<svg width="32" height="32" viewBox="0 0 32 32" fill="none" xmlns="http://www.w3.org/2000/svg">
<path d="M15.9998 32.0003C7.17749 32.0003 0 24.8232 0 16C0 7.17765 7.17749 -0.000320435 15.9998 -0.000320435C24.8235 -0.000320435 32 7.17765 32 16C32 24.8232 24.8235 32.0003 15.9998 32.0003ZM15.9998 2.03472C8.29951 2.03472 2.0344 8.29887 2.0344 16C2.0344 23.701 8.29951 29.9658 15.9998 29.9658C23.7016 29.9658 29.9666 23.701 29.9666 16C29.9666 8.29887 23.7016 2.03472 15.9998 2.03472ZM17.8636 8.09925C17.0819 6.51635 16.6045 4.97712 16.3635 4.08012V15.4128C16.7593 15.5611 17.0424 15.9397 17.0424 16.3868C17.0424 16.9625 16.5754 17.4289 16.0002 17.4289C15.4243 17.4289 14.9579 16.9622 14.9579 16.3868C14.9579 15.9183 15.2693 15.5267 15.6952 15.395V4.06815C15.455 4.96289 14.9773 6.50955 14.1919 8.09925C12.9672 10.5766 11.4404 12.7619 11.4404 12.7619L12.4168 26.1236C12.4168 26.1236 13.3447 27.1591 16.0259 27.1605H16.0296C18.7106 27.1591 19.639 26.1236 19.639 26.1236L20.6152 12.7619C20.6148 12.7619 19.088 10.5767 17.8636 8.09925Z" fill="#333333"/>
</svg>
