<svg width="32" height="32" viewBox="0 0 32 32" fill="none" xmlns="http://www.w3.org/2000/svg">
<path d="M16 32C24.8366 32 32 24.8366 32 16C32 7.16344 24.8366 0 16 0C7.16344 0 0 7.16344 0 16C0 24.8366 7.16344 32 16 32Z" fill="#1B9DF0"/>
<path d="M12.896 23.92C19.992 23.92 23.872 18.04 23.872 12.944C23.872 12.776 23.872 12.608 23.864 12.448C24.616 11.904 25.272 11.224 25.792 10.448C25.104 10.752 24.36 10.96 23.576 11.056C24.376 10.576 24.984 9.82401 25.272 8.92001C24.528 9.36001 23.704 9.68001 22.824 9.85601C22.12 9.10401 21.12 8.64001 20.008 8.64001C17.88 8.64001 16.152 10.368 16.152 12.496C16.152 12.8 16.184 13.096 16.256 13.376C13.048 13.216 10.208 11.68 8.304 9.34401C7.976 9.91201 7.784 10.576 7.784 11.28C7.784 12.616 8.464 13.8 9.504 14.488C8.872 14.472 8.28 14.296 7.76 14.008C7.76 14.024 7.76 14.04 7.76 14.056C7.76 15.928 9.088 17.48 10.856 17.84C10.536 17.928 10.192 17.976 9.84 17.976C9.592 17.976 9.352 17.952 9.112 17.904C9.6 19.44 11.024 20.552 12.712 20.584C11.392 21.616 9.728 22.232 7.92 22.232C7.608 22.232 7.304 22.216 7 22.176C8.688 23.28 10.72 23.92 12.896 23.92Z" fill="white"/>
</svg>
